<svg id="my-svg" width="100%" xmlns="http://www.w3.org/2000/svg" xmlns:xlink="http://www.w3.org/1999/xlink" class="flowchart" style="max-width: 1459.83px; background-color: rgb(26, 29, 36);" viewBox="0 0 1459.83203125 472" role="graphics-document document" aria-roledescription="flowchart-v2"><style>#my-svg{font-family:"trebuchet ms",verdana,arial,sans-serif;font-size:16px;fill:#ccc;}@keyframes edge-animation-frame{from{stroke-dashoffset:0;}}@keyframes dash{to{stroke-dashoffset:0;}}#my-svg .edge-animation-slow{stroke-dasharray:9,5!important;stroke-dashoffset:900;animation:dash 50s linear infinite;stroke-linecap:round;}#my-svg .edge-animation-fast{stroke-dasharray:9,5!important;stroke-dashoffset:900;animation:dash 20s linear infinite;stroke-linecap:round;}#my-svg .error-icon{fill:#a44141;}#my-svg .error-text{fill:#ddd;stroke:#ddd;}#my-svg .edge-thickness-normal{stroke-width:1px;}#my-svg .edge-thickness-thick{stroke-width:3.5px;}#my-svg .edge-pattern-solid{stroke-dasharray:0;}#my-svg .edge-thickness-invisible{stroke-width:0;fill:none;}#my-svg .edge-pattern-dashed{stroke-dasharray:3;}#my-svg .edge-pattern-dotted{stroke-dasharray:2;}#my-svg .marker{fill:lightgrey;stroke:lightgrey;}#my-svg .marker.cross{stroke:lightgrey;}#my-svg svg{font-family:"trebuchet ms",verdana,arial,sans-serif;font-size:16px;}#my-svg p{margin:0;}#my-svg .label{font-family:"trebuchet ms",verdana,arial,sans-serif;color:#ccc;}#my-svg .cluster-label text{fill:#F9FFFE;}#my-svg .cluster-label span{color:#F9FFFE;}#my-svg .cluster-label span p{background-color:transparent;}#my-svg .label text,#my-svg span{fill:#ccc;color:#ccc;}#my-svg .node rect,#my-svg .node circle,#my-svg .node ellipse,#my-svg .node polygon,#my-svg .node path{fill:#1f2020;stroke:#ccc;stroke-width:1px;}#my-svg .rough-node .label text,#my-svg .node .label text,#my-svg .image-shape .label,#my-svg .icon-shape .label{text-anchor:middle;}#my-svg .node .katex path{fill:#000;stroke:#000;stroke-width:1px;}#my-svg .rough-node .label,#my-svg .node .label,#my-svg .image-shape .label,#my-svg .icon-shape .label{text-align:center;}#my-svg .node.clickable{cursor:pointer;}#my-svg .root .anchor path{fill:lightgrey!important;stroke-width:0;stroke:lightgrey;}#my-svg .arrowheadPath{fill:lightgrey;}#my-svg .edgePath .path{stroke:lightgrey;stroke-width:1px;}#my-svg .flowchart-link{stroke:lightgrey;fill:none;}#my-svg .edgeLabel{background-color:hsl(0, 0%, 34.4117647059%);text-align:center;}#my-svg .edgeLabel p{background-color:hsl(0, 0%, 34.4117647059%);}#my-svg .edgeLabel rect{opacity:0.5;background-color:hsl(0, 0%, 34.4117647059%);fill:hsl(0, 0%, 34.4117647059%);}#my-svg .labelBkg{background-color:rgba(87.75, 87.75, 87.75, 0.5);}#my-svg .cluster rect{fill:hsl(180, 1.5873015873%, 28.3529411765%);stroke:rgba(255, 255, 255, 0.25);stroke-width:1px;}#my-svg .cluster text{fill:#F9FFFE;}#my-svg .cluster span{color:#F9FFFE;}#my-svg div.mermaidTooltip{position:absolute;text-align:center;max-width:200px;padding:2px;font-family:"trebuchet ms",verdana,arial,sans-serif;font-size:12px;background:hsl(20, 1.5873015873%, 12.3529411765%);border:1px solid rgba(255, 255, 255, 0.25);border-radius:2px;pointer-events:none;z-index:100;}#my-svg .flowchartTitleText{text-anchor:middle;font-size:18px;fill:#ccc;}#my-svg rect.text{fill:none;stroke-width:0;}#my-svg .icon-shape,#my-svg .image-shape{background-color:hsl(0, 0%, 34.4117647059%);text-align:center;}#my-svg .icon-shape p,#my-svg .image-shape p{background-color:hsl(0, 0%, 34.4117647059%);padding:2px;}#my-svg .icon-shape .label rect,#my-svg .image-shape .label rect{opacity:0.5;background-color:hsl(0, 0%, 34.4117647059%);fill:hsl(0, 0%, 34.4117647059%);}#my-svg .label-icon{display:inline-block;height:1em;overflow:visible;vertical-align:-0.125em;}#my-svg .node .label-icon path{fill:currentColor;stroke:revert;stroke-width:revert;}#my-svg .node .neo-node{stroke:#ccc;}#my-svg [data-look="neo"].node rect,#my-svg [data-look="neo"].cluster rect,#my-svg [data-look="neo"].node polygon{stroke:url(#my-svg-gradient);filter:drop-shadow( 1px 2px 2px rgba(185,185,185,1));}#my-svg [data-look="neo"].swimlane.cluster rect{filter:none;}#my-svg [data-look="neo"].node path{stroke:url(#my-svg-gradient);stroke-width:1px;}#my-svg [data-look="neo"].node .outer-path{filter:drop-shadow( 1px 2px 2px rgba(185,185,185,1));}#my-svg [data-look="neo"].node .neo-line path{stroke:#ccc;filter:none;}#my-svg [data-look="neo"].node circle{stroke:url(#my-svg-gradient);filter:drop-shadow( 1px 2px 2px rgba(185,185,185,1));}#my-svg [data-look="neo"].node circle .state-start{fill:#000000;}#my-svg [data-look="neo"].icon-shape .icon{fill:url(#my-svg-gradient);filter:drop-shadow( 1px 2px 2px rgba(185,185,185,1));}#my-svg [data-look="neo"].icon-shape .icon-neo path{stroke:url(#my-svg-gradient);filter:drop-shadow( 1px 2px 2px rgba(185,185,185,1));}#my-svg :root{--mermaid-font-family:"trebuchet ms",verdana,arial,sans-serif;}</style><g><marker id="my-svg_flowchart-v2-pointEnd" class="marker flowchart-v2" viewBox="0 0 10 10" refX="5" refY="5" markerUnits="userSpaceOnUse" markerWidth="8" markerHeight="8" orient="auto"><path d="M 0 0 L 10 5 L 0 10 z" class="arrowMarkerPath" style="stroke-width: 1; stroke-dasharray: 1, 0;"/></marker><marker id="my-svg_flowchart-v2-pointStart" class="marker flowchart-v2" viewBox="0 0 10 10" refX="4.5" refY="5" markerUnits="userSpaceOnUse" markerWidth="8" markerHeight="8" orient="auto"><path d="M 0 5 L 10 10 L 10 0 z" class="arrowMarkerPath" style="stroke-width: 1; stroke-dasharray: 1, 0;"/></marker><marker id="my-svg_flowchart-v2-pointEnd-margin" class="marker flowchart-v2" viewBox="0 0 11.5 14" refX="11.5" refY="7" markerUnits="userSpaceOnUse" markerWidth="10.5" markerHeight="14" orient="auto"><path d="M 0 0 L 11.5 7 L 0 14 z" class="arrowMarkerPath" style="stroke-width: 0; stroke-dasharray: 1, 0;"/></marker><marker id="my-svg_flowchart-v2-pointStart-margin" class="marker flowchart-v2" viewBox="0 0 11.5 14" refX="1" refY="7" markerUnits="userSpaceOnUse" markerWidth="11.5" markerHeight="14" orient="auto"><polygon points="0,7 11.5,14 11.5,0" class="arrowMarkerPath" style="stroke-width: 0; stroke-dasharray: 1, 0;"/></marker><marker id="my-svg_flowchart-v2-circleEnd" class="marker flowchart-v2" viewBox="0 0 10 10" refX="11" refY="5" markerUnits="userSpaceOnUse" markerWidth="11" markerHeight="11" orient="auto"><circle cx="5" cy="5" r="5" class="arrowMarkerPath" style="stroke-width: 1; stroke-dasharray: 1, 0;"/></marker><marker id="my-svg_flowchart-v2-circleStart" class="marker flowchart-v2" viewBox="0 0 10 10" refX="-1" refY="5" markerUnits="userSpaceOnUse" markerWidth="11" markerHeight="11" orient="auto"><circle cx="5" cy="5" r="5" class="arrowMarkerPath" style="stroke-width: 1; stroke-dasharray: 1, 0;"/></marker><marker id="my-svg_flowchart-v2-circleEnd-margin" class="marker flowchart-v2" viewBox="0 0 10 10" refY="5" refX="12.25" markerUnits="userSpaceOnUse" markerWidth="14" markerHeight="14" orient="auto"><circle cx="5" cy="5" r="5" class="arrowMarkerPath" style="stroke-width: 0; stroke-dasharray: 1, 0;"/></marker><marker id="my-svg_flowchart-v2-circleStart-margin" class="marker flowchart-v2" viewBox="0 0 10 10" refX="-2" refY="5" markerUnits="userSpaceOnUse" markerWidth="14" markerHeight="14" orient="auto"><circle cx="5" cy="5" r="5" class="arrowMarkerPath" style="stroke-width: 0; stroke-dasharray: 1, 0;"/></marker><marker id="my-svg_flowchart-v2-crossEnd" class="marker cross flowchart-v2" viewBox="0 0 11 11" refX="12" refY="5.2" markerUnits="userSpaceOnUse" markerWidth="11" markerHeight="11" orient="auto"><path d="M 1,1 l 9,9 M 10,1 l -9,9" class="arrowMarkerPath" style="stroke-width: 2; stroke-dasharray: 1, 0;"/></marker><marker id="my-svg_flowchart-v2-crossStart" class="marker cross flowchart-v2" viewBox="0 0 11 11" refX="-1" refY="5.2" markerUnits="userSpaceOnUse" markerWidth="11" markerHeight="11" orient="auto"><path d="M 1,1 l 9,9 M 10,1 l -9,9" class="arrowMarkerPath" style="stroke-width: 2; stroke-dasharray: 1, 0;"/></marker><marker id="my-svg_flowchart-v2-crossEnd-margin" class="marker cross flowchart-v2" viewBox="0 0 15 15" refX="17.7" refY="7.5" markerUnits="userSpaceOnUse" markerWidth="12" markerHeight="12" orient="auto"><path d="M 1,1 L 14,14 M 1,14 L 14,1" class="arrowMarkerPath" style="stroke-width: 2.5;"/></marker><marker id="my-svg_flowchart-v2-crossStart-margin" class="marker cross flowchart-v2" viewBox="0 0 15 15" refX="-3.5" refY="7.5" markerUnits="userSpaceOnUse" markerWidth="12" markerHeight="12" orient="auto"><path d="M 1,1 L 14,14 M 1,14 L 14,1" class="arrowMarkerPath" style="stroke-width: 2.5; stroke-dasharray: 1, 0;"/></marker><g class="root"><g class="clusters"><g class="cluster" id="my-svg-M2" data-look="classic"><rect style="" x="1018.09375" y="8" width="433.73828125" height="280"/><g class="cluster-label" transform="translate(1180.025390625, 8)"><foreignObject width="109.875" height="24"><div xmlns="http://www.w3.org/1999/xhtml" style="display: table-cell; white-space: nowrap; line-height: 1.5;"><span class="nodeLabel"><p>機器 B（選配）</p></span></div></foreignObject></g></g><g class="cluster" id="my-svg-M1" data-look="classic"><rect style="" x="8" y="8" width="680.09375" height="280"/><g class="cluster-label" transform="translate(324.9140625, 8)"><foreignObject width="46.265625" height="24"><div xmlns="http://www.w3.org/1999/xhtml" style="display: table-cell; white-space: nowrap; line-height: 1.5;"><span class="nodeLabel"><p>機器 A</p></span></div></foreignObject></g></g></g><g class="edgePaths"><path d="M853.548,84L853.473,90.666C853.397,97.333,853.245,110.667,853.17,122.833C853.094,135,853.094,146,853.094,151.5L853.094,157" id="my-svg-L_owner_cockpit_0" class="edge-thickness-normal edge-pattern-solid edge-thickness-normal edge-pattern-solid flowchart-link" style=";" data-edge="true" data-et="edge" data-id="L_owner_cockpit_0" data-points="W3sieCI6ODUzLjU5Mzc1LCJ5Ijo4MH0seyJ4Ijo4NTMuMDkzNzUsInkiOjEyNH0seyJ4Ijo4NTMuMDkzNzUsInkiOjE2MX1d" data-look="classic" marker-start="url(#my-svg_flowchart-v2-pointStart)" marker-end="url(#my-svg_flowchart-v2-pointEnd)"/><path d="M801.681,265.894L798.167,269.579C794.652,273.263,787.623,280.631,784.108,290.482C780.594,300.333,780.594,312.667,780.594,324.333C780.594,336,780.594,347,780.594,352.5L780.594,358" id="my-svg-L_cockpit_server_0" class="edge-thickness-normal edge-pattern-solid edge-thickness-normal edge-pattern-solid flowchart-link" style=";" data-edge="true" data-et="edge" data-id="L_cockpit_server_0" data-points="W3sieCI6ODA0LjQ0MjQzNDIxMDUyNjQsInkiOjI2M30seyJ4Ijo3ODAuNTkzNzUsInkiOjI4OH0seyJ4Ijo3ODAuNTkzNzUsInkiOjMyNX0seyJ4Ijo3ODAuNTkzNzUsInkiOjM2Mn1d" data-look="classic" marker-start="url(#my-svg_flowchart-v2-pointStart)" marker-end="url(#my-svg_flowchart-v2-pointEnd)"/><path d="M904.506,265.894L908.021,269.579C911.535,273.263,918.565,280.631,922.079,290.482C925.594,300.333,925.594,312.667,916.003,324.654C906.412,336.642,887.229,348.283,877.638,354.104L868.047,359.925" id="my-svg-L_cockpit_server_2" class="edge-thickness-normal edge-pattern-solid edge-thickness-normal edge-pattern-solid flowchart-link" style=";" data-edge="true" data-et="edge" data-id="L_cockpit_server_2" data-points="W3sieCI6OTAxLjc0NTA2NTc4OTQ3MzYsInkiOjI2M30seyJ4Ijo5MjUuNTkzNzUsInkiOjI4OH0seyJ4Ijo5MjUuNTkzNzUsInkiOjMyNX0seyJ4Ijo4NjQuNjI3ODQwOTA5MDkwOSwieSI6MzYyfV0=" data-look="classic" marker-start="url(#my-svg_flowchart-v2-pointStart)" marker-end="url(#my-svg_flowchart-v2-pointEnd)"/><path d="M347.727,81.728L316.449,88.773C285.172,95.819,222.617,109.909,191.34,124.455C160.063,139,160.063,154,160.063,161.5L160.063,169" id="my-svg-L_wardenA_agentA1_0" class="edge-thickness-normal edge-pattern-solid edge-thickness-normal edge-pattern-solid flowchart-link" style=";" data-edge="true" data-et="edge" data-id="L_wardenA_agentA1_0" data-points="W3sieCI6MzQ3LjcyNjU2MjUsInkiOjgxLjcyODExMjYyNjQ4NDgzfSx7IngiOjE2MC4wNjI1LCJ5IjoxMjR9LHsieCI6MTYwLjA2MjUsInkiOjE3M31d" data-look="classic" marker-end="url(#my-svg_flowchart-v2-pointEnd)"/><path d="M444.188,87L444.188,93.167C444.188,99.333,444.188,111.667,444.188,125.333C444.188,139,444.188,154,444.188,161.5L444.188,169" id="my-svg-L_wardenA_agentA2_0" class="edge-thickness-normal edge-pattern-solid edge-thickness-normal edge-pattern-solid flowchart-link" style=";" data-edge="true" data-et="edge" data-id="L_wardenA_agentA2_0" data-points="W3sieCI6NDQ0LjE4NzUsInkiOjg3fSx7IngiOjQ0NC4xODc1LCJ5IjoxMjR9LHsieCI6NDQ0LjE4NzUsInkiOjE3M31d" data-look="classic" marker-end="url(#my-svg_flowchart-v2-pointEnd)"/><path d="M1224.495,87L1215.439,93.167C1206.382,99.333,1188.269,111.667,1179.213,125.333C1170.156,139,1170.156,154,1170.156,161.5L1170.156,169" id="my-svg-L_wardenB_agentB1_0" class="edge-thickness-normal edge-pattern-solid edge-thickness-normal edge-pattern-solid flowchart-link" style=";" data-edge="true" data-et="edge" data-id="L_wardenB_agentB1_0" data-points="W3sieCI6MTIyNC40OTU0ODMzOTg0Mzc1LCJ5Ijo4N30seyJ4IjoxMTcwLjE1NjI1LCJ5IjoxMjR9LHsieCI6MTE3MC4xNTYyNSwieSI6MTczfV0=" data-look="classic" marker-end="url(#my-svg_flowchart-v2-pointEnd)"/><path d="M527.28,88.289L544.762,94.241C562.244,100.193,597.208,112.096,614.69,132.715C632.172,153.333,632.172,182.667,632.172,210C632.172,237.333,632.172,262.667,632.172,281.5C632.172,300.333,632.172,312.667,641.999,324.66C651.827,336.653,671.481,348.307,681.309,354.133L691.136,359.96" id="my-svg-L_wardenA_server_0" class="edge-thickness-normal edge-pattern-solid edge-thickness-normal edge-pattern-solid flowchart-link" style=";" data-edge="true" data-et="edge" data-id="L_wardenA_server_0" data-points="W3sieCI6NTIzLjQ5MzQwODIwMzEyNSwieSI6ODd9LHsieCI6NjMyLjE3MTg3NSwieSI6MTI0fSx7IngiOjYzMi4xNzE4NzUsInkiOjIxMn0seyJ4Ijo2MzIuMTcxODc1LCJ5IjoyODh9LHsieCI6NjMyLjE3MTg3NSwieSI6MzI1fSx7IngiOjY5NC41NzY1MjY5ODg2MzY0LCJ5IjozNjJ9XQ==" data-look="classic" marker-start="url(#my-svg_flowchart-v2-pointStart)" marker-end="url(#my-svg_flowchart-v2-pointEnd)"/><path d="M1307.108,89.251L1315.613,95.043C1324.119,100.834,1341.13,112.417,1349.635,132.875C1358.141,153.333,1358.141,182.667,1358.141,210C1358.141,237.333,1358.141,262.667,1358.141,281.5C1358.141,300.333,1358.141,312.667,1279.694,330.786C1201.248,348.906,1044.355,372.811,965.909,384.764L887.462,396.717" id="my-svg-L_wardenB_server_0" class="edge-thickness-normal edge-pattern-solid edge-thickness-normal edge-pattern-solid flowchart-link" style=";" data-edge="true" data-et="edge" data-id="L_wardenB_server_0" data-points="W3sieCI6MTMwMy44MDEzOTE2MDE1NjI1LCJ5Ijo4N30seyJ4IjoxMzU4LjE0MDYyNSwieSI6MTI0fSx7IngiOjEzNTguMTQwNjI1LCJ5IjoyMTJ9LHsieCI6MTM1OC4xNDA2MjUsInkiOjI4OH0seyJ4IjoxMzU4LjE0MDYyNSwieSI6MzI1fSx7IngiOjg4My41MDc4MTI1LCJ5IjozOTcuMzE5MTI5OTQwNzUxNTd9XQ==" data-look="classic" marker-start="url(#my-svg_flowchart-v2-pointStart)" marker-end="url(#my-svg_flowchart-v2-pointEnd)"/><path d="M160.063,255L160.063,260.5C160.063,266,160.063,277,160.063,288.667C160.063,300.333,160.063,312.667,245.672,330.974C331.281,349.281,502.5,373.562,588.11,385.703L673.719,397.844" id="my-svg-L_agentA1_server_0" class="edge-thickness-normal edge-pattern-solid edge-thickness-normal edge-pattern-solid flowchart-link" style=";" data-edge="true" data-et="edge" data-id="L_agentA1_server_0" data-points="W3sieCI6MTYwLjA2MjUsInkiOjI1MX0seyJ4IjoxNjAuMDYyNSwieSI6Mjg4fSx7IngiOjE2MC4wNjI1LCJ5IjozMjV9LHsieCI6Njc3LjY3OTY4NzUsInkiOjM5OC40MDUzNDgyMzk5MTU0fV0=" data-look="classic" marker-start="url(#my-svg_flowchart-v2-pointStart)" marker-end="url(#my-svg_flowchart-v2-pointEnd)"/><path d="M444.188,255L444.188,260.5C444.188,266,444.188,277,444.188,288.667C444.188,300.333,444.188,312.667,482.458,328.844C520.728,345.022,597.269,365.044,635.539,375.055L673.81,385.067" id="my-svg-L_agentA2_server_0" class="edge-thickness-normal edge-pattern-solid edge-thickness-normal edge-pattern-solid flowchart-link" style=";" data-edge="true" data-et="edge" data-id="L_agentA2_server_0" data-points="W3sieCI6NDQ0LjE4NzUsInkiOjI1MX0seyJ4Ijo0NDQuMTg3NSwieSI6Mjg4fSx7IngiOjQ0NC4xODc1LCJ5IjozMjV9LHsieCI6Njc3LjY3OTY4NzUsInkiOjM4Ni4wNzg4NjY2OTc2MzEyfV0=" data-look="classic" marker-start="url(#my-svg_flowchart-v2-pointStart)" marker-end="url(#my-svg_flowchart-v2-pointEnd)"/><path d="M1170.156,255L1170.156,260.5C1170.156,266,1170.156,277,1170.156,288.667C1170.156,300.333,1170.156,312.667,1123.032,329.478C1075.907,346.29,981.658,367.581,934.534,378.226L887.41,388.871" id="my-svg-L_agentB1_server_0" class="edge-thickness-normal edge-pattern-solid edge-thickness-normal edge-pattern-solid flowchart-link" style=";" data-edge="true" data-et="edge" data-id="L_agentB1_server_0" data-points="W3sieCI6MTE3MC4xNTYyNSwieSI6MjUxfSx7IngiOjExNzAuMTU2MjUsInkiOjI4OH0seyJ4IjoxMTcwLjE1NjI1LCJ5IjozMjV9LHsieCI6ODgzLjUwNzgxMjUsInkiOjM4OS43NTIyODYyMTg1MTQzN31d" data-look="classic" marker-start="url(#my-svg_flowchart-v2-pointStart)" marker-end="url(#my-svg_flowchart-v2-pointEnd)"/></g><g class="edgeLabels"><g class="edgeLabel"><g class="label" data-id="L_owner_cockpit_0" transform="translate(0, 0)"><foreignObject width="0" height="0"><div xmlns="http://www.w3.org/1999/xhtml" class="labelBkg" style="display: table-cell; white-space: nowrap; line-height: 1.5; max-width: 200px; text-align: center;"><span class="edgeLabel"></span></div></foreignObject></g></g><g class="edgeLabel" transform="translate(780.59375, 325)"><g class="label" data-id="L_cockpit_server_0" transform="translate(-27.703125, -12)"><foreignObject width="55.40625" height="24"><div xmlns="http://www.w3.org/1999/xhtml" class="labelBkg" style="display: table-cell; white-space: nowrap; line-height: 1.5; max-width: 200px; text-align: center;"><span class="edgeLabel"><p>REST 發</p></span></div></foreignObject></g></g><g class="edgeLabel" transform="translate(925.59375, 325)"><g class="label" data-id="L_cockpit_server_2" transform="translate(-22.390625, -12)"><foreignObject width="44.78125" height="24"><div xmlns="http://www.w3.org/1999/xhtml" class="labelBkg" style="display: table-cell; white-space: nowrap; line-height: 1.5; max-width: 200px; text-align: center;"><span class="edgeLabel"><p>SSE 收</p></span></div></foreignObject></g></g><g class="edgeLabel" transform="translate(160.0625, 124)"><g class="label" data-id="L_wardenA_agentA1_0" transform="translate(-58.921875, -12)"><foreignObject width="117.84375" height="24"><div xmlns="http://www.w3.org/1999/xhtml" class="labelBkg" style="display: table-cell; white-space: nowrap; line-height: 1.5; max-width: 200px; text-align: center;"><span class="edgeLabel"><p>依 server 令起停</p></span></div></foreignObject></g></g><g class="edgeLabel" transform="translate(444.1875, 124)"><g class="label" data-id="L_wardenA_agentA2_0" transform="translate(-58.921875, -12)"><foreignObject width="117.84375" height="24"><div xmlns="http://www.w3.org/1999/xhtml" class="labelBkg" style="display: table-cell; white-space: nowrap; line-height: 1.5; max-width: 200px; text-align: center;"><span class="edgeLabel"><p>依 server 令起停</p></span></div></foreignObject></g></g><g class="edgeLabel" transform="translate(1170.15625, 124)"><g class="label" data-id="L_wardenB_agentB1_0" transform="translate(-58.921875, -12)"><foreignObject width="117.84375" height="24"><div xmlns="http://www.w3.org/1999/xhtml" class="labelBkg" style="display: table-cell; white-space: nowrap; line-height: 1.5; max-width: 200px; text-align: center;"><span class="edgeLabel"><p>依 server 令起停</p></span></div></foreignObject></g></g><g class="edgeLabel" transform="translate(632.171875, 212)"><g class="label" data-id="L_wardenA_server_0" transform="translate(-35.921875, -12)"><foreignObject width="71.84375" height="24"><div xmlns="http://www.w3.org/1999/xhtml" class="labelBkg" style="display: table-cell; white-space: nowrap; line-height: 1.5; max-width: 200px; text-align: center;"><span class="edgeLabel"><p>SSE + MCP</p></span></div></foreignObject></g></g><g class="edgeLabel" transform="translate(1358.140625, 212)"><g class="label" data-id="L_wardenB_server_0" transform="translate(-35.921875, -12)"><foreignObject width="71.84375" height="24"><div xmlns="http://www.w3.org/1999/xhtml" class="labelBkg" style="display: table-cell; white-space: nowrap; line-height: 1.5; max-width: 200px; text-align: center;"><span class="edgeLabel"><p>SSE + MCP</p></span></div></foreignObject></g></g><g class="edgeLabel" transform="translate(160.0625, 325)"><g class="label" data-id="L_agentA1_server_0" transform="translate(-55.3359375, -12)"><foreignObject width="110.671875" height="24"><div xmlns="http://www.w3.org/1999/xhtml" class="labelBkg" style="display: table-cell; white-space: nowrap; line-height: 1.5; max-width: 200px; text-align: center;"><span class="edgeLabel"><p>SSE 收 · MCP 發</p></span></div></foreignObject></g></g><g class="edgeLabel" transform="translate(444.1875, 325)"><g class="label" data-id="L_agentA2_server_0" transform="translate(-55.3359375, -12)"><foreignObject width="110.671875" height="24"><div xmlns="http://www.w3.org/1999/xhtml" class="labelBkg" style="display: table-cell; white-space: nowrap; line-height: 1.5; max-width: 200px; text-align: center;"><span class="edgeLabel"><p>SSE 收 · MCP 發</p></span></div></foreignObject></g></g><g class="edgeLabel" transform="translate(1170.15625, 325)"><g class="label" data-id="L_agentB1_server_0" transform="translate(-55.3359375, -12)"><foreignObject width="110.671875" height="24"><div xmlns="http://www.w3.org/1999/xhtml" class="labelBkg" style="display: table-cell; white-space: nowrap; line-height: 1.5; max-width: 200px; text-align: center;"><span class="edgeLabel"><p>SSE 收 · MCP 發</p></span></div></foreignObject></g></g></g><g class="nodes"><g class="node default" id="my-svg-flowchart-owner-0" data-look="classic" transform="translate(853.09375, 60)"><g class="basic label-container outer-path"><path d="M-37.7890625 -19.5 C-15.7146803259798 -19.5, 6.359701848040402 -19.5, 37.7890625 -19.5 C37.7890625 -19.5, 37.7890625 -19.5, 37.7890625 -19.5 C38.04578414902238 -19.49176743639423, 38.302505798044756 -19.483534872788457, 39.0384317896239 -19.45993515863156 C39.325317099592574 -19.432259677808947, 39.61220240956125 -19.40458419698633, 40.282667152847864 -19.3399052695533 C40.6192829714528 -19.285483834495917, 40.955898790057724 -19.23106239943853, 41.51665575967676 -19.140403561325776 C41.893804283117625 -19.05432187197452, 42.27095280655848 -18.968240182623262, 42.73532688623539 -18.862249829261074 C43.14633826668139 -18.740263808987464, 43.55734964712739 -18.618277788713854, 43.933672751460605 -18.50658706670804 C44.19740961416391 -18.40952946327639, 44.46114647686721 -18.312471859844738, 45.1067690951478 -18.074876768247425 C45.44292637117453 -17.926069913901685, 45.77908364720127 -17.777263059555946, 46.24979541279238 -17.568892924097174 C46.59642711593181 -17.38805538659754, 46.94305881907123 -17.2072178490979, 47.35805476407678 -16.990714730406097 C47.679241486363644 -16.796009451853113, 48.0004282086505 -16.60130417330013, 48.4269930736057 -16.342718045390892 C48.785420501071755 -16.092694588063832, 49.14384792853782 -15.84267113073677, 49.45221784457871 -15.627565626425154 C49.73379916481934 -15.403012016726878, 50.01538048505997 -15.1784584070286, 50.429516208501866 -14.848196188198123 C50.64129395849502 -14.655865238986557, 50.85307170848817 -14.463534289774989, 51.35487223676799 -14.007812326905688 C51.54479832346854 -13.811698049165653, 51.7347244101691 -13.615583771425616, 52.22448344296865 -13.10986736009568 C52.45720903421146 -12.836494638160595, 52.68993462545426 -12.563121916225509, 53.03477640812658 -12.158051136245305 C53.27774250210932 -11.832498704974952, 53.52070859609206 -11.5069462737046, 53.782421464640635 -11.156274872382312 C53.91959644718867 -10.945537262548106, 54.0567714297367 -10.7347996527139, 54.46434637860425 -10.108655082055241 C54.62321872526657 -9.826561142986716, 54.78209107192889 -9.54446720391819, 55.077748974273504 -9.019496659696287 C55.28421801666757 -8.590759275435207, 55.490687059061635 -8.162021891174126, 55.62010864880834 -7.893275190886684 C55.72491208650379 -7.634408673542291, 55.829715524199244 -7.375542156197897, 56.089196729970325 -6.734618561215508 C56.2267627402046 -6.320291656557072, 56.364328750438865 -5.905964751898635, 56.48308563421488 -5.548287939305138 C56.555299767364836 -5.272904151801062, 56.6275139005148 -4.997520364296987, 56.80015678754556 -4.339158212148133 C56.86819232079003 -3.989810128252839, 56.93622785403449 -3.6404620443575446, 57.039107276581774 -3.1121979531509023 C57.098447793985976 -2.651964618274491, 57.15778831139018 -2.19173128339808, 57.19895520250937 -1.872449005199798 C57.229578852663785 -1.3954609350792757, 57.2602025028182 -0.9184728649587536, 57.27904371591342 -0.6250057626472757 C57.27904371591342 -0.14386936010453466, 57.27904371591342 0.3372670424382064, 57.27904371591342 0.625005762647271 C57.251352619780754 1.0563169367640406, 57.22366152364808 1.48762811088081, 57.19895520250937 1.8724490051997846 C57.16157262660919 2.162380881856951, 57.12419005070902 2.4523127585141173, 57.039107276581774 3.1121979531508885 C56.94712676609146 3.584498434430903, 56.85514625560114 4.056798915710917, 56.80015678754556 4.339158212148129 C56.73387484133914 4.5919199998104245, 56.667592895132714 4.84468178747272, 56.48308563421489 5.548287939305125 C56.33391344456931 5.997570807156851, 56.18474125492373 6.446853675008578, 56.089196729970325 6.734618561215495 C55.969647736204244 7.029906887140281, 55.850098742438156 7.325195213065066, 55.62010864880834 7.893275190886679 C55.468920663615535 8.20722027704421, 55.31773267842272 8.52116536320174, 55.077748974273504 9.019496659696284 C54.92997630596233 9.281881995888043, 54.78220363765115 9.5442673320798, 54.46434637860425 10.108655082055236 C54.2088004574993 10.501242240560476, 53.953254536394354 10.893829399065718, 53.78242146464064 11.156274872382301 C53.58684371387832 11.418331240904184, 53.39126596311599 11.680387609426065, 53.03477640812658 12.158051136245302 C52.779598396644346 12.457797748572524, 52.52442038516211 12.757544360899749, 52.22448344296866 13.10986736009567 C51.900696719312755 13.444203735654787, 51.576909995656855 13.778540111213902, 51.35487223676799 14.007812326905684 C50.990019879165615 14.33916158461577, 50.62516752156325 14.670510842325855, 50.42951620850189 14.848196188198111 C50.16846972442626 15.056373812509737, 49.90742324035063 15.264551436821364, 49.45221784457871 15.627565626425152 C49.07804364114993 15.888573352996866, 48.70386943772115 16.14958107956858, 48.42699307360571 16.34271804539089 C48.10151105324286 16.54002715887951, 47.77602903288001 16.73733627236813, 47.35805476407678 16.990714730406093 C47.07966016342427 17.13595301524626, 46.80126556277176 17.28119130008642, 46.24979541279239 17.56889292409717 C45.97447131063652 17.690770736922264, 45.699147208480646 17.812648549747358, 45.106769095147804 18.07487676824742 C44.800066378290495 18.187746203179746, 44.49336366143318 18.300615638112074, 43.93367275146062 18.506587066708033 C43.54788183619454 18.621087785301167, 43.16209092092846 18.735588503894302, 42.73532688623541 18.86224982926107 C42.37282742916697 18.944987964806916, 42.010327972098516 19.027726100352762, 41.516655759676766 19.140403561325773 C41.06761645168194 19.213000754290533, 40.61857714368711 19.285597947255297, 40.28266715284788 19.3399052695533 C39.81654256323188 19.38487174811672, 39.35041797361587 19.429838226680136, 39.0384317896239 19.45993515863156 C38.742558244453875 19.46942324734224, 38.44668469928385 19.478911336052928, 37.78906250000001 19.5 C37.78906250000001 19.5, 37.7890625 19.5, 37.7890625 19.5 C15.817013588446613 19.5, -6.155035323106773 19.5, -37.78906249999999 19.5 C-38.08728696705987 19.490436521800103, -38.38551143411974 19.4808730436002, -39.03843178962389 19.45993515863156 C-39.433723767127425 19.42180181696995, -39.82901574463095 19.383668475308344, -40.28266715284787 19.3399052695533 C-40.66040731923177 19.27883516887109, -41.038147485615674 19.217765068188882, -41.51665575967676 19.140403561325773 C-41.89598257650234 19.053824690724145, -42.27530939332793 18.967245820122518, -42.735326886235384 18.862249829261074 C-43.07237415028535 18.76221597048824, -43.40942141433532 18.6621821117154, -43.93367275146059 18.506587066708043 C-44.2577886112972 18.387309434194005, -44.58190447113381 18.26803180167997, -45.1067690951478 18.074876768247425 C-45.380919724054515 17.953518417219883, -45.65507035296124 17.83216006619234, -46.24979541279238 17.568892924097174 C-46.608054412999316 17.381989433165057, -46.96631341320625 17.195085942232943, -47.35805476407678 16.990714730406097 C-47.746069584706596 16.755497865912115, -48.13408440533641 16.520281001418134, -48.426993073605686 16.3427180453909 C-48.700289164714476 16.152078523030514, -48.97358525582326 15.961439000670131, -49.45221784457871 15.627565626425156 C-49.839571936183866 15.318661046295327, -50.22692602778902 15.0097564661655, -50.429516208501866 14.848196188198125 C-50.784004511357104 14.526259290791526, -51.13849281421234 14.204322393384928, -51.354872236767974 14.007812326905697 C-51.65140275746422 13.701620218678311, -51.94793327816046 13.395428110450926, -52.224483442968655 13.109867360095677 C-52.48396698665461 12.805063224650246, -52.74345053034056 12.500259089204814, -53.034776408126575 12.158051136245307 C-53.195786060467135 11.942312870390042, -53.356795712807696 11.726574604534777, -53.782421464640635 11.156274872382316 C-53.973386528019034 10.862901253733517, -54.164351591397434 10.56952763508472, -54.46434637860425 10.108655082055249 C-54.68238798637932 9.721500128343648, -54.90042959415439 9.334345174632046, -55.077748974273504 9.019496659696289 C-55.281184109919316 8.597059247713156, -55.484619245565135 8.174621835730022, -55.62010864880834 7.893275190886686 C-55.730913024904254 7.6195862396729055, -55.84171740100017 7.345897288459125, -56.089196729970325 6.73461856121551 C-56.214350664706686 6.35767485036111, -56.339504599443046 5.98073113950671, -56.48308563421488 5.5482879393051325 C-56.56114451959013 5.25061557843439, -56.63920340496538 4.952943217563647, -56.80015678754556 4.339158212148136 C-56.87982941910577 3.930056087903106, -56.959502050665975 3.5209539636580764, -57.039107276581774 3.112197953150904 C-57.09972817010304 2.6420342739493923, -57.16034906362431 2.171870594747881, -57.19895520250937 1.872449005199809 C-57.22720688515308 1.4324062436761473, -57.2554585677968 0.9923634821524856, -57.27904371591342 0.6250057626472781 C-57.27904371591342 0.21541281797965928, -57.27904371591342 -0.1941801266879596, -57.27904371591342 -0.6250057626472687 C-57.25972398936425 -0.9259260982532249, -57.24040426281507 -1.2268464338591811, -57.19895520250937 -1.8724490051997822 C-57.161600592851165 -2.1621639812067963, -57.12424598319296 -2.4518789572138107, -57.039107276581774 -3.112197953150895 C-56.95605068139756 -3.5386760154042043, -56.87299408621335 -3.9651540776575134, -56.80015678754556 -4.339158212148126 C-56.7032977866856 -4.70852356138367, -56.606438785825645 -5.0778889106192135, -56.48308563421489 -5.548287939305123 C-56.396298961004604 -5.8096755714359425, -56.30951228779432 -6.071063203566761, -56.08919672997033 -6.734618561215485 C-55.924801807962226 -7.140677196935094, -55.760406885954126 -7.5467358326547025, -55.62010864880834 -7.893275190886676 C-55.40532864181223 -8.339270470970046, -55.19054863481613 -8.785265751053418, -55.077748974273504 -9.019496659696282 C-54.83353580251705 -9.45312187541506, -54.58932263076059 -9.88674709113384, -54.46434637860425 -10.108655082055243 C-54.23461461058019 -10.461584769357552, -54.004882842556135 -10.81451445665986, -53.78242146464064 -11.156274872382308 C-53.609869162350584 -11.38747923761286, -53.43731686006053 -11.618683602843412, -53.03477640812659 -12.158051136245302 C-52.818666939200995 -12.411905615422445, -52.6025574702754 -12.665760094599587, -52.22448344296866 -13.10986736009567 C-51.93885077918983 -13.40480653632514, -51.65321811541099 -13.699745712554611, -51.354872236767996 -14.007812326905677 C-51.070274968240575 -14.26627603615119, -50.78567769971315 -14.524739745396705, -50.42951620850189 -14.848196188198107 C-50.05735956361718 -15.144981208989417, -49.685202918732486 -15.441766229780725, -49.45221784457872 -15.627565626425149 C-49.14848621005105 -15.839435666341108, -48.844754575523375 -16.051305706257068, -48.426993073605715 -16.342718045390885 C-48.016763550112906 -16.591401593308497, -47.606534026620096 -16.84008514122611, -47.35805476407679 -16.99071473040609 C-47.01188094002353 -17.17131339267976, -46.665707115970264 -17.35191205495343, -46.24979541279239 -17.56889292409717 C-45.931484040791695 -17.709799926110513, -45.61317266879101 -17.850706928123856, -45.106769095147804 -18.07487676824742 C-44.71027313147405 -18.220790948047874, -44.31377716780029 -18.366705127848327, -43.93367275146062 -18.506587066708033 C-43.513267385394485 -18.631361172603665, -43.09286201932835 -18.756135278499293, -42.73532688623541 -18.862249829261067 C-42.31956111735945 -18.95714565288181, -41.903795348483484 -19.052041476502552, -41.516655759676766 -19.140403561325773 C-41.03620683936701 -19.21807881682443, -40.55575791905725 -19.29575407232309, -40.28266715284788 -19.3399052695533 C-39.90485817582014 -19.376352047185392, -39.5270491987924 -19.412798824817486, -39.0384317896239 -19.45993515863156 C-38.725505883719855 -19.469970083360575, -38.4125799778158 -19.480005008089595, -37.78906250000001 -19.5 C-37.78906250000001 -19.5, -37.7890625 -19.5, -37.7890625 -19.5" stroke="none" stroke-width="0" fill="#1f2020" style=""/><path d="M-37.7890625 -19.5 C-17.17411370723108 -19.5, 3.4408350855378416 -19.5, 37.7890625 -19.5 M-37.7890625 -19.5 C-18.924280257870436 -19.5, -0.059498015740871324 -19.5, 37.7890625 -19.5 M37.7890625 -19.5 C37.7890625 -19.5, 37.7890625 -19.5, 37.7890625 -19.5 M37.7890625 -19.5 C37.7890625 -19.5, 37.7890625 -19.5, 37.7890625 -19.5 M37.7890625 -19.5 C38.28095246308261 -19.48422604628967, 38.772842426165234 -19.468452092579344, 39.0384317896239 -19.45993515863156 M37.7890625 -19.5 C38.10014120888007 -19.49002431128419, 38.41121991776013 -19.480048622568383, 39.0384317896239 -19.45993515863156 M39.0384317896239 -19.45993515863156 C39.30560183429595 -19.434161585741037, 39.57277187896799 -19.408388012850512, 40.282667152847864 -19.3399052695533 M39.0384317896239 -19.45993515863156 C39.38185313680911 -19.4268057142932, 39.72527448399433 -19.393676269954838, 40.282667152847864 -19.3399052695533 M40.282667152847864 -19.3399052695533 C40.66569374592566 -19.277980500400073, 41.04872033900346 -19.21605573124685, 41.51665575967676 -19.140403561325776 M40.282667152847864 -19.3399052695533 C40.55428406767702 -19.295992353184356, 40.82590098250616 -19.252079436815414, 41.51665575967676 -19.140403561325776 M41.51665575967676 -19.140403561325776 C41.94577236156832 -19.042460497191552, 42.37488896345987 -18.944517433057328, 42.73532688623539 -18.862249829261074 M41.51665575967676 -19.140403561325776 C41.96803788959057 -19.03737853571662, 42.41942001950438 -18.934353510107467, 42.73532688623539 -18.862249829261074 M42.73532688623539 -18.862249829261074 C43.05991182959264 -18.76591472185378, 43.38449677294989 -18.669579614446484, 43.933672751460605 -18.50658706670804 M42.73532688623539 -18.862249829261074 C43.16170014769514 -18.73570448333874, 43.588073409154894 -18.60915913741641, 43.933672751460605 -18.50658706670804 M43.933672751460605 -18.50658706670804 C44.2816710239625 -18.378520485566572, 44.6296692964644 -18.250453904425108, 45.1067690951478 -18.074876768247425 M43.933672751460605 -18.50658706670804 C44.3175815846774 -18.365305067269908, 44.70149041789419 -18.224023067831777, 45.1067690951478 -18.074876768247425 M45.1067690951478 -18.074876768247425 C45.551557951632994 -17.877981935674065, 45.99634680811819 -17.681087103100705, 46.24979541279238 -17.568892924097174 M45.1067690951478 -18.074876768247425 C45.51802052915472 -17.892827957752907, 45.92927196316163 -17.710779147258393, 46.24979541279238 -17.568892924097174 M46.24979541279238 -17.568892924097174 C46.669063448553516 -17.350161058394587, 47.088331484314644 -17.131429192691996, 47.35805476407678 -16.990714730406097 M46.24979541279238 -17.568892924097174 C46.60574572745632 -17.383193872934054, 46.961696042120266 -17.19749482177093, 47.35805476407678 -16.990714730406097 M47.35805476407678 -16.990714730406097 C47.70044069222481 -16.783158368679715, 48.04282662037283 -16.57560200695333, 48.4269930736057 -16.342718045390892 M47.35805476407678 -16.990714730406097 C47.58393205437228 -16.85378658962667, 47.809809344667784 -16.716858448847237, 48.4269930736057 -16.342718045390892 M48.4269930736057 -16.342718045390892 C48.64238729656632 -16.192468359719193, 48.857781519526945 -16.042218674047493, 49.45221784457871 -15.627565626425154 M48.4269930736057 -16.342718045390892 C48.71717358882106 -16.1403006796887, 49.00735410403642 -15.937883313986507, 49.45221784457871 -15.627565626425154 M49.45221784457871 -15.627565626425154 C49.828022876695954 -15.327871113903553, 50.2038279088132 -15.028176601381952, 50.429516208501866 -14.848196188198123 M49.45221784457871 -15.627565626425154 C49.694126509003965 -15.43464990400593, 49.93603517342922 -15.241734181586708, 50.429516208501866 -14.848196188198123 M50.429516208501866 -14.848196188198123 C50.769862322625784 -14.539102852415503, 51.1102084367497 -14.230009516632883, 51.35487223676799 -14.007812326905688 M50.429516208501866 -14.848196188198123 C50.62741332173609 -14.668471266029487, 50.825310434970326 -14.48874634386085, 51.35487223676799 -14.007812326905688 M51.35487223676799 -14.007812326905688 C51.54912251197368 -13.807232969511618, 51.743372787179375 -13.606653612117547, 52.22448344296865 -13.10986736009568 M51.35487223676799 -14.007812326905688 C51.67638079654169 -13.675828342595677, 51.99788935631539 -13.343844358285665, 52.22448344296865 -13.10986736009568 M52.22448344296865 -13.10986736009568 C52.469668404217366 -12.821859153193413, 52.71485336546609 -12.533850946291144, 53.03477640812658 -12.158051136245305 M52.22448344296865 -13.10986736009568 C52.39185439007521 -12.913263921947632, 52.559225337181765 -12.716660483799584, 53.03477640812658 -12.158051136245305 M53.03477640812658 -12.158051136245305 C53.32908340840433 -11.763706567792418, 53.62339040868208 -11.369361999339532, 53.782421464640635 -11.156274872382312 M53.03477640812658 -12.158051136245305 C53.24396290369486 -11.877760289465607, 53.45314939926313 -11.59746944268591, 53.782421464640635 -11.156274872382312 M53.782421464640635 -11.156274872382312 C53.98096127590354 -10.851264406878304, 54.17950108716645 -10.546253941374294, 54.46434637860425 -10.108655082055241 M53.782421464640635 -11.156274872382312 C53.93011480628193 -10.929378238405958, 54.07780814792323 -10.702481604429604, 54.46434637860425 -10.108655082055241 M54.46434637860425 -10.108655082055241 C54.610072597782 -9.84990342352532, 54.75579881695976 -9.591151764995399, 55.077748974273504 -9.019496659696287 M54.46434637860425 -10.108655082055241 C54.59753748902792 -9.872160778435592, 54.730728599451595 -9.635666474815942, 55.077748974273504 -9.019496659696287 M55.077748974273504 -9.019496659696287 C55.24645243527614 -8.669180313248503, 55.415155896278776 -8.31886396680072, 55.62010864880834 -7.893275190886684 M55.077748974273504 -9.019496659696287 C55.23134854153789 -8.700543871767533, 55.38494810880228 -8.381591083838776, 55.62010864880834 -7.893275190886684 M55.62010864880834 -7.893275190886684 C55.71796997595739 -7.651555820808484, 55.81583130310644 -7.409836450730285, 56.089196729970325 -6.734618561215508 M55.62010864880834 -7.893275190886684 C55.805170615850976 -7.436168554361642, 55.99023258289362 -6.9790619178366, 56.089196729970325 -6.734618561215508 M56.089196729970325 -6.734618561215508 C56.1757069002004 -6.474063712006304, 56.26221707043048 -6.213508862797099, 56.48308563421488 -5.548287939305138 M56.089196729970325 -6.734618561215508 C56.22400326584754 -6.32860275365799, 56.35880980172475 -5.9225869461004725, 56.48308563421488 -5.548287939305138 M56.48308563421488 -5.548287939305138 C56.60756759545284 -5.07358427028151, 56.732049556690804 -4.598880601257883, 56.80015678754556 -4.339158212148133 M56.48308563421488 -5.548287939305138 C56.547324138595606 -5.303318680957529, 56.611562642976324 -5.058349422609918, 56.80015678754556 -4.339158212148133 M56.80015678754556 -4.339158212148133 C56.84836488584017 -4.091619816190508, 56.89657298413477 -3.844081420232883, 57.039107276581774 -3.1121979531509023 M56.80015678754556 -4.339158212148133 C56.869752557107695 -3.981798644517663, 56.93934832666984 -3.624439076887193, 57.039107276581774 -3.1121979531509023 M57.039107276581774 -3.1121979531509023 C57.07660050304959 -2.821407892541512, 57.114093729517414 -2.5306178319321213, 57.19895520250937 -1.872449005199798 M57.039107276581774 -3.1121979531509023 C57.09340268377815 -2.6910934967766598, 57.14769809097454 -2.2699890404024172, 57.19895520250937 -1.872449005199798 M57.19895520250937 -1.872449005199798 C57.21620053196582 -1.6038390787362102, 57.23344586142227 -1.3352291522726225, 57.27904371591342 -0.6250057626472757 M57.19895520250937 -1.872449005199798 C57.21927799904935 -1.555905044823363, 57.23960079558935 -1.2393610844469278, 57.27904371591342 -0.6250057626472757 M57.27904371591342 -0.6250057626472757 C57.27904371591342 -0.13544155029771676, 57.27904371591342 0.3541226620518422, 57.27904371591342 0.625005762647271 M57.27904371591342 -0.6250057626472757 C57.27904371591342 -0.2970606636948844, 57.27904371591342 0.030884435257506948, 57.27904371591342 0.625005762647271 M57.27904371591342 0.625005762647271 C57.24921620772963 1.089593278940975, 57.219388699545846 1.5541807952346791, 57.19895520250937 1.8724490051997846 M57.27904371591342 0.625005762647271 C57.25145728322784 1.0546867190927933, 57.22387085054226 1.4843676755383157, 57.19895520250937 1.8724490051997846 M57.19895520250937 1.8724490051997846 C57.150955149505805 2.2447279376128413, 57.10295509650224 2.6170068700258984, 57.039107276581774 3.1121979531508885 M57.19895520250937 1.8724490051997846 C57.14616872347208 2.2818505127436817, 57.09338224443479 2.6912520202875787, 57.039107276581774 3.1121979531508885 M57.039107276581774 3.1121979531508885 C56.972286469627484 3.455308674278638, 56.90546566267319 3.798419395406387, 56.80015678754556 4.339158212148129 M57.039107276581774 3.1121979531508885 C56.98546858685293 3.387621288367424, 56.93182989712408 3.6630446235839593, 56.80015678754556 4.339158212148129 M56.80015678754556 4.339158212148129 C56.73159095898705 4.6006294330598125, 56.66302513042854 4.862100653971496, 56.48308563421489 5.548287939305125 M56.80015678754556 4.339158212148129 C56.71939289048708 4.647145954926536, 56.63862899342859 4.955133697704943, 56.48308563421489 5.548287939305125 M56.48308563421489 5.548287939305125 C56.33560628713071 5.992472235079746, 56.18812694004653 6.436656530854368, 56.089196729970325 6.734618561215495 M56.48308563421489 5.548287939305125 C56.3716622556339 5.883877402686564, 56.26023887705291 6.219466866068002, 56.089196729970325 6.734618561215495 M56.089196729970325 6.734618561215495 C55.96531967121242 7.040597291347517, 55.84144261245452 7.346576021479538, 55.62010864880834 7.893275190886679 M56.089196729970325 6.734618561215495 C55.92401455042408 7.1426217382748955, 55.75883237087784 7.5506249153342955, 55.62010864880834 7.893275190886679 M55.62010864880834 7.893275190886679 C55.428449293551985 8.291259942929761, 55.23678993829563 8.689244694972844, 55.077748974273504 9.019496659696284 M55.62010864880834 7.893275190886679 C55.41896959262375 8.31094474474035, 55.21783053643916 8.728614298594021, 55.077748974273504 9.019496659696284 M55.077748974273504 9.019496659696284 C54.85500837235805 9.414995153328885, 54.632267770442596 9.810493646961486, 54.46434637860425 10.108655082055236 M55.077748974273504 9.019496659696284 C54.90369544155488 9.328546331869552, 54.729641908836264 9.63759600404282, 54.46434637860425 10.108655082055236 M54.46434637860425 10.108655082055236 C54.27267609454817 10.403112109043224, 54.08100581049208 10.69756913603121, 53.78242146464064 11.156274872382301 M54.46434637860425 10.108655082055236 C54.32620115375767 10.32088324460654, 54.188055928911105 10.533111407157843, 53.78242146464064 11.156274872382301 M53.78242146464064 11.156274872382301 C53.50052778951042 11.533986716014685, 53.2186341143802 11.911698559647066, 53.03477640812658 12.158051136245302 M53.78242146464064 11.156274872382301 C53.561380714505205 11.452449340337186, 53.340339964369775 11.748623808292068, 53.03477640812658 12.158051136245302 M53.03477640812658 12.158051136245302 C52.86849440629248 12.353375437313588, 52.702212404458365 12.548699738381876, 52.22448344296866 13.10986736009567 M53.03477640812658 12.158051136245302 C52.796573727621706 12.437857558882824, 52.55837104711683 12.717663981520348, 52.22448344296866 13.10986736009567 M52.22448344296866 13.10986736009567 C51.97648390913808 13.365947239916137, 51.7284843753075 13.622027119736602, 51.35487223676799 14.007812326905684 M52.22448344296866 13.10986736009567 C51.877526086729944 13.468129316140859, 51.53056873049122 13.826391272186047, 51.35487223676799 14.007812326905684 M51.35487223676799 14.007812326905684 C51.02125068930188 14.310798589171972, 50.68762914183577 14.613784851438261, 50.42951620850189 14.848196188198111 M51.35487223676799 14.007812326905684 C51.01672218099971 14.314911260594242, 50.678572125231426 14.6220101942828, 50.42951620850189 14.848196188198111 M50.42951620850189 14.848196188198111 C50.19629589634064 15.034183180893557, 49.963075584179386 15.220170173589, 49.45221784457871 15.627565626425152 M50.42951620850189 14.848196188198111 C50.04585716257857 15.154154067725969, 49.662198116655254 15.460111947253825, 49.45221784457871 15.627565626425152 M49.45221784457871 15.627565626425152 C49.16733712367948 15.82628608503681, 48.88245640278026 16.025006543648466, 48.42699307360571 16.34271804539089 M49.45221784457871 15.627565626425152 C49.14602284852186 15.841154000706664, 48.839827852465014 16.054742374988177, 48.42699307360571 16.34271804539089 M48.42699307360571 16.34271804539089 C48.14570931359884 16.513233913713904, 47.86442555359198 16.68374978203692, 47.35805476407678 16.990714730406093 M48.42699307360571 16.34271804539089 C48.12459623731773 16.526032784629724, 47.82219940102975 16.70934752386856, 47.35805476407678 16.990714730406093 M47.35805476407678 16.990714730406093 C47.095710864029925 17.127579375021252, 46.83336696398307 17.26444401963641, 46.24979541279239 17.56889292409717 M47.35805476407678 16.990714730406093 C47.08561675308148 17.132845466237466, 46.81317874208619 17.27497620206884, 46.24979541279239 17.56889292409717 M46.24979541279239 17.56889292409717 C45.94232477124645 17.70500105631704, 45.6348541297005 17.84110918853691, 45.106769095147804 18.07487676824742 M46.24979541279239 17.56889292409717 C45.82039350164078 17.758976412408867, 45.39099159048917 17.949059900720563, 45.106769095147804 18.07487676824742 M45.106769095147804 18.07487676824742 C44.85427189806852 18.1677980708311, 44.60177470098923 18.260719373414783, 43.93367275146062 18.506587066708033 M45.106769095147804 18.07487676824742 C44.71774397485299 18.218041608624702, 44.32871885455819 18.36120644900198, 43.93367275146062 18.506587066708033 M43.93367275146062 18.506587066708033 C43.45565163979819 18.648461223465425, 42.97763052813577 18.790335380222814, 42.73532688623541 18.86224982926107 M43.93367275146062 18.506587066708033 C43.621968162136106 18.59909935264877, 43.31026357281159 18.69161163858951, 42.73532688623541 18.86224982926107 M42.73532688623541 18.86224982926107 C42.3357181961658 18.953457905079055, 41.93610950609619 19.04466598089704, 41.516655759676766 19.140403561325773 M42.73532688623541 18.86224982926107 C42.34606572219922 18.951096149785844, 41.95680455816303 19.03994247031062, 41.516655759676766 19.140403561325773 M41.516655759676766 19.140403561325773 C41.14907721854887 19.19983080924117, 40.78149867742097 19.25925805715657, 40.28266715284788 19.3399052695533 M41.516655759676766 19.140403561325773 C41.09555954177842 19.208483132185634, 40.67446332388007 19.2765627030455, 40.28266715284788 19.3399052695533 M40.28266715284788 19.3399052695533 C40.032778506775266 19.364011726704856, 39.78288986070266 19.388118183856413, 39.0384317896239 19.45993515863156 M40.28266715284788 19.3399052695533 C39.7879638597784 19.387628701267953, 39.29326056670892 19.43535213298261, 39.0384317896239 19.45993515863156 M39.0384317896239 19.45993515863156 C38.65552494720504 19.47221423578498, 38.27261810478618 19.484493312938394, 37.78906250000001 19.5 M39.0384317896239 19.45993515863156 C38.627240922133346 19.47312124941751, 38.2160500546428 19.486307340203464, 37.78906250000001 19.5 M37.78906250000001 19.5 C37.78906250000001 19.5, 37.7890625 19.5, 37.7890625 19.5 M37.78906250000001 19.5 C37.78906250000001 19.5, 37.78906250000001 19.5, 37.7890625 19.5 M37.7890625 19.5 C20.90356182806978 19.5, 4.018061156139559 19.5, -37.78906249999999 19.5 M37.7890625 19.5 C18.727588828622853 19.5, -0.3338848427542942 19.5, -37.78906249999999 19.5 M-37.78906249999999 19.5 C-38.12282195489847 19.489296983904776, -38.45658140979695 19.478593967809548, -39.03843178962389 19.45993515863156 M-37.78906249999999 19.5 C-38.179834427678884 19.487468704870754, -38.570606355357775 19.474937409741507, -39.03843178962389 19.45993515863156 M-39.03843178962389 19.45993515863156 C-39.32295832563454 19.432487225895837, -39.60748486164518 19.405039293160115, -40.28266715284787 19.3399052695533 M-39.03843178962389 19.45993515863156 C-39.49202892834133 19.416177188189863, -39.945626067058754 19.372419217748163, -40.28266715284787 19.3399052695533 M-40.28266715284787 19.3399052695533 C-40.70894911318008 19.270987308072762, -41.13523107351229 19.202069346592225, -41.51665575967676 19.140403561325773 M-40.28266715284787 19.3399052695533 C-40.751286733065385 19.264142490022852, -41.2199063132829 19.188379710492406, -41.51665575967676 19.140403561325773 M-41.51665575967676 19.140403561325773 C-41.8484034977961 19.06468430495634, -42.18015123591544 18.98896504858691, -42.735326886235384 18.862249829261074 M-41.51665575967676 19.140403561325773 C-41.90088790827593 19.052705080757107, -42.285120056875094 18.96500660018844, -42.735326886235384 18.862249829261074 M-42.735326886235384 18.862249829261074 C-43.00152678525906 18.78324309654263, -43.26772668428274 18.704236363824187, -43.93367275146059 18.506587066708043 M-42.735326886235384 18.862249829261074 C-43.08905076253154 18.757266439510893, -43.4427746388277 18.652283049760708, -43.93367275146059 18.506587066708043 M-43.93367275146059 18.506587066708043 C-44.299076729006266 18.372115025213894, -44.66448070655194 18.237642983719745, -45.1067690951478 18.074876768247425 M-43.93367275146059 18.506587066708043 C-44.339643405624095 18.357186113224287, -44.7456140597876 18.207785159740528, -45.1067690951478 18.074876768247425 M-45.1067690951478 18.074876768247425 C-45.341159717504226 17.971118992681006, -45.575550339860655 17.867361217114592, -46.24979541279238 17.568892924097174 M-45.1067690951478 18.074876768247425 C-45.53166247051104 17.88678907498828, -45.95655584587428 17.69870138172913, -46.24979541279238 17.568892924097174 M-46.24979541279238 17.568892924097174 C-46.68196232564294 17.343431722479156, -47.1141292384935 17.11797052086114, -47.35805476407678 16.990714730406097 M-46.24979541279238 17.568892924097174 C-46.52498566470339 17.42532634594297, -46.8001759166144 17.281759767788767, -47.35805476407678 16.990714730406097 M-47.35805476407678 16.990714730406097 C-47.754882890812254 16.75015518795813, -48.15171101754773 16.50959564551016, -48.426993073605686 16.3427180453909 M-47.35805476407678 16.990714730406097 C-47.737702658875826 16.760569945520245, -48.11735055367486 16.530425160634394, -48.426993073605686 16.3427180453909 M-48.426993073605686 16.3427180453909 C-48.7128690296816 16.143303353803027, -48.998744985757504 15.943888662215157, -49.45221784457871 15.627565626425156 M-48.426993073605686 16.3427180453909 C-48.77682472598458 16.098690628659536, -49.12665637836348 15.854663211928171, -49.45221784457871 15.627565626425156 M-49.45221784457871 15.627565626425156 C-49.830259998214785 15.326087069024593, -50.20830215185086 15.024608511624029, -50.429516208501866 14.848196188198125 M-49.45221784457871 15.627565626425156 C-49.72924445456204 15.406644276951141, -50.00627106454538 15.185722927477126, -50.429516208501866 14.848196188198125 M-50.429516208501866 14.848196188198125 C-50.680632562872496 14.620138959333369, -50.93174891724312 14.392081730468613, -51.354872236767974 14.007812326905697 M-50.429516208501866 14.848196188198125 C-50.62911990417327 14.666921393013743, -50.82872359984467 14.48564659782936, -51.354872236767974 14.007812326905697 M-51.354872236767974 14.007812326905697 C-51.57430634615841 13.781228593084647, -51.793740455548836 13.554644859263599, -52.224483442968655 13.109867360095677 M-51.354872236767974 14.007812326905697 C-51.69890362536828 13.652571672673584, -52.04293501396859 13.297331018441472, -52.224483442968655 13.109867360095677 M-52.224483442968655 13.109867360095677 C-52.462815850358204 12.829908552877749, -52.701148257747754 12.54994974565982, -53.034776408126575 12.158051136245307 M-52.224483442968655 13.109867360095677 C-52.456711576131255 12.837078980727767, -52.688939709293855 12.564290601359858, -53.034776408126575 12.158051136245307 M-53.034776408126575 12.158051136245307 C-53.31687812681741 11.780060533194867, -53.59897984550824 11.402069930144425, -53.782421464640635 11.156274872382316 M-53.034776408126575 12.158051136245307 C-53.328975035393356 11.763851777754136, -53.623173662660136 11.369652419262964, -53.782421464640635 11.156274872382316 M-53.782421464640635 11.156274872382316 C-53.95597413255806 10.889651369044437, -54.129526800475496 10.623027865706558, -54.46434637860425 10.108655082055249 M-53.782421464640635 11.156274872382316 C-53.978466824405935 10.855096554232642, -54.17451218417124 10.55391823608297, -54.46434637860425 10.108655082055249 M-54.46434637860425 10.108655082055249 C-54.6829397337405 9.7205204450334, -54.90153308887674 9.332385808011551, -55.077748974273504 9.019496659696289 M-54.46434637860425 10.108655082055249 C-54.676924835465876 9.731200505994485, -54.889503292327504 9.353745929933721, -55.077748974273504 9.019496659696289 M-55.077748974273504 9.019496659696289 C-55.21508060442205 8.73432459126668, -55.352412234570586 8.449152522837071, -55.62010864880834 7.893275190886686 M-55.077748974273504 9.019496659696289 C-55.27601934813299 8.607783986070666, -55.47428972199248 8.196071312445046, -55.62010864880834 7.893275190886686 M-55.62010864880834 7.893275190886686 C-55.72564580121836 7.632596384011895, -55.831182953628385 7.371917577137103, -56.089196729970325 6.73461856121551 M-55.62010864880834 7.893275190886686 C-55.72841511421371 7.625756127372361, -55.83672157961908 7.358237063858036, -56.089196729970325 6.73461856121551 M-56.089196729970325 6.73461856121551 C-56.207304275257854 6.378897452691284, -56.32541182054539 6.023176344167059, -56.48308563421488 5.5482879393051325 M-56.089196729970325 6.73461856121551 C-56.1707466858092 6.489003087449772, -56.25229664164807 6.2433876136840345, -56.48308563421488 5.5482879393051325 M-56.48308563421488 5.5482879393051325 C-56.586595027220746 5.153561762519064, -56.69010442022661 4.758835585732996, -56.80015678754556 4.339158212148136 M-56.48308563421488 5.5482879393051325 C-56.59041107375758 5.1390095231890776, -56.697736513300285 4.7297311070730235, -56.80015678754556 4.339158212148136 M-56.80015678754556 4.339158212148136 C-56.874423536219204 3.9578141539918597, -56.94869028489285 3.5764700958355835, -57.039107276581774 3.112197953150904 M-56.80015678754556 4.339158212148136 C-56.85635081703111 4.0506137473521795, -56.91254484651666 3.762069282556224, -57.039107276581774 3.112197953150904 M-57.039107276581774 3.112197953150904 C-57.10295287893598 2.6170240690319386, -57.16679848129018 2.121850184912973, -57.19895520250937 1.872449005199809 M-57.039107276581774 3.112197953150904 C-57.07893658155141 2.8032897289922887, -57.11876588652105 2.4943815048336737, -57.19895520250937 1.872449005199809 M-57.19895520250937 1.872449005199809 C-57.22835185284593 1.4145724476587334, -57.2577485031825 0.9566958901176575, -57.27904371591342 0.6250057626472781 M-57.19895520250937 1.872449005199809 C-57.22055047315369 1.5360852335257071, -57.24214574379802 1.1997214618516054, -57.27904371591342 0.6250057626472781 M-57.27904371591342 0.6250057626472781 C-57.27904371591342 0.3446095537784864, -57.27904371591342 0.06421334490969466, -57.27904371591342 -0.6250057626472687 M-57.27904371591342 0.6250057626472781 C-57.27904371591342 0.32213643373731227, -57.27904371591342 0.019267104827346393, -57.27904371591342 -0.6250057626472687 M-57.27904371591342 -0.6250057626472687 C-57.252115460904804 -1.0444350705026506, -57.22518720589619 -1.4638643783580325, -57.19895520250937 -1.8724490051997822 M-57.27904371591342 -0.6250057626472687 C-57.24872943180364 -1.0971752069067284, -57.21841514769387 -1.5693446511661882, -57.19895520250937 -1.8724490051997822 M-57.19895520250937 -1.8724490051997822 C-57.15418024866498 -2.2197147054021653, -57.10940529482058 -2.566980405604548, -57.039107276581774 -3.112197953150895 M-57.19895520250937 -1.8724490051997822 C-57.15546710948744 -2.209734066982537, -57.11197901646551 -2.5470191287652915, -57.039107276581774 -3.112197953150895 M-57.039107276581774 -3.112197953150895 C-56.97510817221495 -3.440819827859026, -56.91110906784813 -3.7694417025671574, -56.80015678754556 -4.339158212148126 M-57.039107276581774 -3.112197953150895 C-56.979698137354326 -3.417251326957837, -56.92028899812687 -3.722304700764779, -56.80015678754556 -4.339158212148126 M-56.80015678754556 -4.339158212148126 C-56.698604668783865 -4.726420453953159, -56.59705255002217 -5.1136826957581905, -56.48308563421489 -5.548287939305123 M-56.80015678754556 -4.339158212148126 C-56.70199341194918 -4.713497707573219, -56.60383003635281 -5.087837202998312, -56.48308563421489 -5.548287939305123 M-56.48308563421489 -5.548287939305123 C-56.35744638927836 -5.926693327158755, -56.23180714434182 -6.305098715012388, -56.08919672997033 -6.734618561215485 M-56.48308563421489 -5.548287939305123 C-56.40009096091117 -5.798254671890505, -56.31709628760745 -6.048221404475887, -56.08919672997033 -6.734618561215485 M-56.08919672997033 -6.734618561215485 C-55.930420718969025 -7.126798378114055, -55.77164470796772 -7.518978195012624, -55.62010864880834 -7.893275190886676 M-56.08919672997033 -6.734618561215485 C-55.98005692723813 -7.0041959840385655, -55.87091712450592 -7.273773406861646, -55.62010864880834 -7.893275190886676 M-55.62010864880834 -7.893275190886676 C-55.440618225186824 -8.265990896016584, -55.261127801565316 -8.638706601146493, -55.077748974273504 -9.019496659696282 M-55.62010864880834 -7.893275190886676 C-55.41503987131773 -8.319104895114855, -55.20997109382713 -8.744934599343033, -55.077748974273504 -9.019496659696282 M-55.077748974273504 -9.019496659696282 C-54.90753577543329 -9.321727430192473, -54.73732257659307 -9.623958200688662, -54.46434637860425 -10.108655082055243 M-55.077748974273504 -9.019496659696282 C-54.869479982179826 -9.389299344680923, -54.661210990086154 -9.759102029665565, -54.46434637860425 -10.108655082055243 M-54.46434637860425 -10.108655082055243 C-54.22784152196185 -10.471990052304275, -53.99133666531945 -10.835325022553308, -53.78242146464064 -11.156274872382308 M-54.46434637860425 -10.108655082055243 C-54.29947644390014 -10.36193957553713, -54.13460650919604 -10.615224069019016, -53.78242146464064 -11.156274872382308 M-53.78242146464064 -11.156274872382308 C-53.49660609650532 -11.539241427367951, -53.21079072836999 -11.922207982353594, -53.03477640812659 -12.158051136245302 M-53.78242146464064 -11.156274872382308 C-53.54748141857615 -11.471073130630222, -53.31254137251166 -11.785871388878135, -53.03477640812659 -12.158051136245302 M-53.03477640812659 -12.158051136245302 C-52.861320532443976 -12.361802277741031, -52.687864656761356 -12.56555341923676, -52.22448344296866 -13.10986736009567 M-53.03477640812659 -12.158051136245302 C-52.78203888564191 -12.454931011328238, -52.529301363157224 -12.751810886411173, -52.22448344296866 -13.10986736009567 M-52.22448344296866 -13.10986736009567 C-51.8990599320685 -13.445893852867211, -51.573636421168345 -13.781920345638754, -51.354872236767996 -14.007812326905677 M-52.22448344296866 -13.10986736009567 C-51.99686136221603 -13.344905846593141, -51.7692392814634 -13.579944333090612, -51.354872236767996 -14.007812326905677 M-51.354872236767996 -14.007812326905677 C-50.998837672054705 -14.331153498419912, -50.64280310734142 -14.654494669934147, -50.42951620850189 -14.848196188198107 M-51.354872236767996 -14.007812326905677 C-51.15162539525752 -14.19239573074875, -50.94837855374704 -14.376979134591823, -50.42951620850189 -14.848196188198107 M-50.42951620850189 -14.848196188198107 C-50.17042656889272 -15.054813281121547, -49.911336929283564 -15.261430374044988, -49.45221784457872 -15.627565626425149 M-50.42951620850189 -14.848196188198107 C-50.13160342393063 -15.085773706101545, -49.83369063935937 -15.323351224004984, -49.45221784457872 -15.627565626425149 M-49.45221784457872 -15.627565626425149 C-49.23790512626788 -15.77706090127074, -49.02359240795705 -15.926556176116332, -48.426993073605715 -16.342718045390885 M-49.45221784457872 -15.627565626425149 C-49.215606340866906 -15.7926155686676, -48.97899483715509 -15.95766551091005, -48.426993073605715 -16.342718045390885 M-48.426993073605715 -16.342718045390885 C-48.00986410717349 -16.595584076163995, -47.59273514074127 -16.848450106937108, -47.35805476407679 -16.99071473040609 M-48.426993073605715 -16.342718045390885 C-48.20924887277641 -16.474715859540563, -47.99150467194712 -16.60671367369024, -47.35805476407679 -16.99071473040609 M-47.35805476407679 -16.99071473040609 C-46.95795783047093 -17.19944504439395, -46.55786089686507 -17.40817535838181, -46.24979541279239 -17.56889292409717 M-47.35805476407679 -16.99071473040609 C-47.02796679543048 -17.162921412217436, -46.69787882678418 -17.33512809402878, -46.24979541279239 -17.56889292409717 M-46.24979541279239 -17.56889292409717 C-45.825950252811246 -17.75651660350087, -45.4021050928301 -17.944140282904566, -45.106769095147804 -18.07487676824742 M-46.24979541279239 -17.56889292409717 C-45.80902008948042 -17.764011084591974, -45.368244766168445 -17.95912924508678, -45.106769095147804 -18.07487676824742 M-45.106769095147804 -18.07487676824742 C-44.83005162779027 -18.176711354183222, -44.55333416043273 -18.278545940119024, -43.93367275146062 -18.506587066708033 M-45.106769095147804 -18.07487676824742 C-44.81149624884292 -18.18353990515989, -44.51622340253804 -18.292203042072355, -43.93367275146062 -18.506587066708033 M-43.93367275146062 -18.506587066708033 C-43.57799327141899 -18.6121508693847, -43.22231379137736 -18.717714672061366, -42.73532688623541 -18.862249829261067 M-43.93367275146062 -18.506587066708033 C-43.51536393313521 -18.630738928239218, -43.09705511480981 -18.754890789770403, -42.73532688623541 -18.862249829261067 M-42.73532688623541 -18.862249829261067 C-42.47998657460944 -18.920529589138443, -42.22464626298347 -18.97880934901582, -41.516655759676766 -19.140403561325773 M-42.73532688623541 -18.862249829261067 C-42.25561427382983 -18.971741102625295, -41.77590166142424 -19.08123237598952, -41.516655759676766 -19.140403561325773 M-41.516655759676766 -19.140403561325773 C-41.192407501555834 -19.19282550511597, -40.8681592434349 -19.245247448906163, -40.28266715284788 -19.3399052695533 M-41.516655759676766 -19.140403561325773 C-41.13255856580789 -19.202501416912266, -40.74846137193902 -19.26459927249876, -40.28266715284788 -19.3399052695533 M-40.28266715284788 -19.3399052695533 C-39.97403196152175 -19.369678935272407, -39.66539677019563 -19.399452600991513, -39.0384317896239 -19.45993515863156 M-40.28266715284788 -19.3399052695533 C-39.9200969651783 -19.374881979503336, -39.55752677750872 -19.409858689453372, -39.0384317896239 -19.45993515863156 M-39.0384317896239 -19.45993515863156 C-38.62096159383922 -19.47332261525393, -38.20349139805453 -19.486710071876306, -37.78906250000001 -19.5 M-39.0384317896239 -19.45993515863156 C-38.65759792078862 -19.47214775955695, -38.276764051953336 -19.48436036048234, -37.78906250000001 -19.5 M-37.78906250000001 -19.5 C-37.78906250000001 -19.5, -37.7890625 -19.5, -37.7890625 -19.5 M-37.78906250000001 -19.5 C-37.78906250000001 -19.5, -37.78906250000001 -19.5, -37.7890625 -19.5" stroke="#ccc" stroke-width="1.3" fill="none" stroke-dasharray="0 0" style=""/></g><g class="label" style="" transform="translate(-44.9140625, -12)"><rect/><foreignObject width="89.828125" height="24"><div xmlns="http://www.w3.org/1999/xhtml" style="display: table-cell; white-space: nowrap; line-height: 1.5; max-width: 200px; text-align: center;"><span class="nodeLabel"><p>👤 你 owner</p></span></div></foreignObject></g></g><g class="node default" id="my-svg-flowchart-cockpit-1" data-look="classic" transform="translate(853.09375, 212)"><rect class="basic label-container" style="" x="-130" y="-51" width="260" height="102"/><g class="label" style="" transform="translate(-100, -36)"><rect/><foreignObject width="200" height="72"><div xmlns="http://www.w3.org/1999/xhtml" style="display: table; white-space: break-spaces; line-height: 1.5; max-width: 200px; text-align: center; width: 200px;"><span class="nodeLabel"><p>🖥️ 控制台網頁<br />（127.0.0.1，只綁 loopback）</p></span></div></foreignObject></g></g><g class="node default" id="my-svg-flowchart-server-2" data-look="classic" transform="translate(780.59375, 413)"><rect class="basic label-container" style="" x="-102.9140625" y="-51" width="205.828125" height="102"/><g class="label" style="" transform="translate(-72.9140625, -36)"><rect/><foreignObject width="145.828125" height="72"><div xmlns="http://www.w3.org/1999/xhtml" style="display: table-cell; white-space: nowrap; line-height: 1.5; max-width: 200px; text-align: center;"><span class="nodeLabel"><p>ocserverd（server）<br />唯一真相源 · SQLite<br />REST + SSE + MCP</p></span></div></foreignObject></g></g><g class="node default" id="my-svg-flowchart-wardenA-9" data-look="classic" transform="translate(444.1875, 60)"><rect class="basic label-container" style="" x="-96.4609375" y="-27" width="192.921875" height="54"/><g class="label" style="" transform="translate(-66.4609375, -12)"><rect/><foreignObject width="132.921875" height="24"><div xmlns="http://www.w3.org/1999/xhtml" style="display: table-cell; white-space: nowrap; line-height: 1.5; max-width: 200px; text-align: center;"><span class="nodeLabel"><p>warden（執行手）</p></span></div></foreignObject></g></g><g class="node default" id="my-svg-flowchart-agentA1-10" data-look="classic" transform="translate(160.0625, 212)"><rect class="basic label-container" style="" x="-117.0625" y="-39" width="234.125" height="78"/><g class="label" style="" transform="translate(-87.0625, -24)"><rect/><foreignObject width="174.125" height="48"><div xmlns="http://www.w3.org/1999/xhtml" style="display: table-cell; white-space: nowrap; line-height: 1.5; max-width: 200px; text-align: center;"><span class="nodeLabel"><p>成員：Mira<br />tmux · claude + ocagent</p></span></div></foreignObject></g></g><g class="node default" id="my-svg-flowchart-agentA2-11" data-look="classic" transform="translate(444.1875, 212)"><rect class="basic label-container" style="" x="-117.0625" y="-39" width="234.125" height="78"/><g class="label" style="" transform="translate(-87.0625, -24)"><rect/><foreignObject width="174.125" height="48"><div xmlns="http://www.w3.org/1999/xhtml" style="display: table-cell; white-space: nowrap; line-height: 1.5; max-width: 200px; text-align: center;"><span class="nodeLabel"><p>成員：其他角色<br />tmux · claude + ocagent</p></span></div></foreignObject></g></g><g class="node default" id="my-svg-flowchart-wardenB-16" data-look="classic" transform="translate(1264.1484375, 60)"><rect class="basic label-container" style="" x="-96.4609375" y="-27" width="192.921875" height="54"/><g class="label" style="" transform="translate(-66.4609375, -12)"><rect/><foreignObject width="132.921875" height="24"><div xmlns="http://www.w3.org/1999/xhtml" style="display: table-cell; white-space: nowrap; line-height: 1.5; max-width: 200px; text-align: center;"><span class="nodeLabel"><p>warden（執行手）</p></span></div></foreignObject></g></g><g class="node default" id="my-svg-flowchart-agentB1-17" data-look="classic" transform="translate(1170.15625, 212)"><rect class="basic label-container" style="" x="-117.0625" y="-39" width="234.125" height="78"/><g class="label" style="" transform="translate(-87.0625, -24)"><rect/><foreignObject width="174.125" height="48"><div xmlns="http://www.w3.org/1999/xhtml" style="display: table-cell; white-space: nowrap; line-height: 1.5; max-width: 200px; text-align: center;"><span class="nodeLabel"><p>成員 / 外包<br />tmux · claude + ocagent</p></span></div></foreignObject></g></g></g></g></g><defs><filter id="my-svg-drop-shadow" height="130%" width="130%"><feDropShadow dx="4" dy="4" stdDeviation="0" flood-opacity="0.06" flood-color="#FFFFFF"/></filter></defs><defs><filter id="my-svg-drop-shadow-small" height="150%" width="150%"><feDropShadow dx="2" dy="2" stdDeviation="0" flood-opacity="0.06" flood-color="#FFFFFF"/></filter></defs><linearGradient id="my-svg-gradient" gradientUnits="objectBoundingBox" x1="0%" y1="0%" x2="100%" y2="0%"><stop offset="0%" stop-color="#cccccc" stop-opacity="1"/><stop offset="100%" stop-color="hsl(180, 0%, 18.3529411765%)" stop-opacity="1"/></linearGradient></svg>